# xmcd
# 
# Track frame offsets:
#     150
#     19445
#     45186
#     59543
#     80332
#     101656
#     123836
#     143518
#     169016
#     190149
#     209916
#     232904
# 
# Disc length: 3362
# 
# Revision: 4
# Processed by: cddbd v1.5.2PL0 Copyright (c) Steve Scherf et al.
# Submitted via: fre:ac v1.0.17
# 
DISCID=9d0d200c
DTITLE=La banda de La Havana - Salsa In Cuba
DYEAR=2002
DGENRE=Salsa
TTITLE0=Cultura Latina
TTITLE1=Guantanamera
TTITLE2=La Bamba
TTITLE3=Ahora Y Siempre
TTITLE4=Acabando Commigo
TTITLE5=Nueva Era
TTITLE6=El Tiburon
TTITLE7=Eurochacha
TTITLE8=Soneros De Ayer
TTITLE9=Mentirosa
TTITLE10=Me Gusta El Son
TTITLE11=La Cintura
EXTD=YEAR: 2002
EXTT0=
EXTT1=
EXTT2=
EXTT3=
EXTT4=
EXTT5=
EXTT6=
EXTT7=
EXTT8=
EXTT9=
EXTT10=
EXTT11=
PLAYORDER=
